<?xml version="1.0" standalone="no"?>
<!DOCTYPE svg PUBLIC "-//W3C//DTD SVG 20010904//EN"
 "http://www.w3.org/TR/2001/REC-SVG-20010904/DTD/svg10.dtd">
<svg version="1.0" xmlns="http://www.w3.org/2000/svg"
 width="512.000000pt" height="512.000000pt" viewBox="0 0 512.000000 512.000000"
 preserveAspectRatio="xMidYMid meet">
<metadata>
Created by potrace 1.14, written by Peter Selinger 2001-2017
</metadata>
<g transform="translate(0.000000,512.000000) scale(0.100000,-0.100000)"
fill="#000000" stroke="none">
<path d="M3345 4620 c-130 -27 -262 -80 -369 -148 -51 -33 -163 -127 -196
-166 -14 -17 -32 -37 -41 -45 -88 -89 -193 -309 -225 -476 -17 -88 -23 -272
-10 -332 3 -15 8 -45 11 -66 l4 -37 -62 5 c-303 24 -634 97 -844 186 -37 15
-66 26 -103 40 -137 50 -479 248 -635 368 -155 118 -351 302 -453 424 -31 37
-59 67 -63 67 -9 0 -60 -106 -87 -180 -62 -171 -73 -416 -27 -593 36 -140 110
-291 194 -397 47 -60 147 -157 193 -188 21 -13 38 -27 38 -30 0 -8 -145 8
-206 24 -72 18 -151 47 -205 75 -23 11 -44 18 -47 15 -9 -10 -5 -101 9 -179
51 -305 245 -581 520 -740 61 -35 203 -92 253 -101 21 -4 36 -10 33 -13 -19
-19 -165 -33 -303 -30 l-152 4 30 -69 c72 -171 204 -343 332 -433 16 -11 40
-29 55 -40 81 -62 252 -135 366 -156 27 -5 60 -11 73 -14 13 -2 43 -5 68 -6
24 -2 44 -6 44 -9 0 -8 -96 -75 -195 -136 -267 -165 -603 -274 -925 -300 -77
-6 -313 -6 -365 1 l-50 6 50 -32 c78 -50 254 -142 362 -189 54 -23 112 -48
128 -55 134 -57 442 -136 649 -165 213 -31 684 -34 821 -5 11 2 40 7 65 10 25
3 70 10 100 15 586 107 1105 375 1510 780 107 108 217 231 262 295 4 5 18 24
31 40 25 31 105 147 122 177 5 9 30 50 55 90 174 286 330 697 385 1013 8 50
17 97 19 105 3 8 7 44 11 80 4 36 9 79 11 95 3 17 6 113 8 214 l3 184 74 60
c92 73 207 182 280 267 72 83 161 201 156 207 -3 2 -38 -9 -78 -25 -61 -24
-229 -78 -272 -86 -7 -2 -30 -6 -52 -11 -22 -4 -49 -10 -60 -12 -49 -10 -109
-14 -100 -6 6 5 36 28 67 52 70 52 154 138 213 217 47 62 130 220 141 267 l6
28 -38 -22 c-142 -80 -356 -168 -473 -194 -9 -2 -31 -8 -49 -14 -18 -5 -35
-10 -37 -10 -3 0 -19 -2 -35 -6 -26 -6 -36 0 -77 38 -47 45 -138 117 -146 117
-3 0 -29 15 -60 33 -74 45 -196 92 -292 112 -109 24 -315 26 -420 5z"/>
</g>
</svg>
